<?xml version="1.0" ?><!DOCTYPE svg  PUBLIC '-//W3C//DTD SVG 1.1//EN'  'http://www.w3.org/Graphics/SVG/1.1/DTD/svg11.dtd'><svg enable-background="new 0 0 64 64" height="64px" id="Layer_1" version="1.1" viewBox="0 0 64 64" width="64px" xml:space="preserve" xmlns="http://www.w3.org/2000/svg" xmlns:xlink="http://www.w3.org/1999/xlink"><g><g><path d="M49.419,38.3c-0.036-0.07-0.169-0.139-0.21-0.206C47.707,36.176,46,34.531,46,30.837v-12.32    c0-5.2,0.612-9.992-3.218-13.548C39.637,2.099,34.906,1,31.075,1h-1.644c-6.974,0.405-14.359,3.418-16.009,12.042    c-0.271,1.099,0.552,1.507,1.097,1.643l7.664,0.958c0.82-0.138,1.233-0.996,1.368-1.674C24.233,10.956,26.624,9,29.432,9h0.55    c1.644,0,3.264,0.858,4.219,2.229C35.294,12.87,35,15.235,35,17.153v1.094c-1,0.135-3.675,0.27-5.727,0.54    c-3.146,0.417-6.212,0.963-8.81,2.196c-5.062,2.054-8.445,6.434-8.445,12.864c0,1.653,0.247,3.133,0.65,4.453    c1.564,5.126,5.922,7.73,11.15,7.73c2.188,0,3.97-0.277,5.608-0.681c2.605-0.825,4.792-2.331,7.391-5.071    c1.505,2.053,1.921,3.016,4.518,5.205c0.687,0.27,1.371,0.27,1.914-0.134c1.645-1.373,4.521-3.838,6.022-5.205    C49.89,39.651,49.74,38.934,49.419,38.3z M29.273,25.085C31.05,24.677,33,24.538,35,24.538v1.645c0,3.147,0.294,5.61-1.346,8.349    c-0.958,1.915-2.524,3.147-4.301,3.562c-0.271,0-0.643,0.136-1.055,0.136c-3.007,0-4.845-2.326-4.845-5.748    C23.453,28.098,25.991,26.049,29.273,25.085z" fill="#626A84"/><path d="M13.423,13.042c-0.271,1.099,0.552,1.507,1.097,1.643l7.664,0.958c0.82-0.138,1.233-0.996,1.368-1.674    C24.233,10.956,26.567,9,29.432,9h0.55c1.644,0,3.264,0.858,4.219,2.229C35.294,12.87,35,15.235,35,17.153v1.094    c-1,0.135-3.675,0.27-5.727,0.54c-3.146,0.417-6.212,0.963-8.81,2.196c-5.062,2.054-8.445,6.434-8.445,12.864    c0,1.653,0.247,3.133,0.65,4.453c1.564,5.126,5.922,7.73,11.15,7.73c2.188,0,3.97-0.277,5.608-0.681    c2.605-0.825,4.792-2.331,7.391-5.071c1.505,2.053,1.921,3.016,4.518,5.205c0.687,0.27,1.371,0.27,1.914-0.134    c1.645-1.373,4.521-3.838,6.022-5.205c0.618-0.493,0.468-1.211,0.147-1.845c-0.036-0.07-0.169-0.139-0.21-0.206    C47.707,36.176,46,34.531,46,30.837v-12.32c0-5.2,0.612-9.992-3.218-13.548 M29.273,25.085C31.05,24.677,33,24.538,35,24.538    v1.645c0,3.147,0.294,5.61-1.346,8.349c-0.958,1.915-2.524,3.147-4.301,3.562c-0.271,0-0.643,0.136-1.055,0.136    c-3.007,0-4.845-2.326-4.845-5.748C23.453,28.098,25.991,26.049,29.273,25.085z" fill="#4B506D"/><path d="M56.359,49.018c0.556-0.004,1.106,0.036,1.45,0.108c0.17,0.038,0.325,0.082,0.393,0.117    c0.027,0.008,0.058,0.019,0.07,0.026c0.014,0.047,0.043,0.171,0.04,0.343c0.006,0.655-0.267,1.874-0.651,3.063    c-0.371,1.188-0.823,2.381-1.121,3.173c-0.072,0.182-0.12,0.383-0.12,0.602c-0.006,0.317,0.125,0.822,0.403,1.076    c0.27,0.255,0.62,0.474,0.911,0.474h0.015c0.438,0,0.811-0.296,1.131-0.546c3.024-2.723,4.082-7.128,4.125-9.574L63,47.431v-0.004    c0-0.645-0.168-1.138-0.438-1.545l-0.031-0.042l-0.033-0.039c-0.273-0.3-0.537-0.412-0.821-0.536    c-0.851-0.329-2.19-0.504-3.678-0.508c-0.602,0-1,0.039-2,0.112v4.153C56,49.021,56.278,49.018,56.359,49.018z" fill="#EA7B0C"/><path d="M54.062,50.594c-0.31-0.004-0.924,0.113-1.219,0.25c-0.332,0.131-0.648,0.323-0.969,0.457l-0.625,0.371    L50.474,52l0,0c0,0,0.185,0,0,0h5.357C55.547,51.531,54.874,50.594,54.062,50.594z" fill="#FA9826"/><path d="M55.831,52h-5.357c-6.486,3-13.268,4.318-19.556,4.453C24.682,56.457,18.442,55,13.165,52    C10.601,51,8,49.955,6,48.576c-1-0.409-1.684-0.82-2.425-1.231c-0.292-0.154-0.695-0.235-0.987-0.235    c-0.375,0-0.812,0.143-1.092,0.405c-0.281,0.266-0.474,0.649-0.47,1.041c-0.004,0.505,0.257,0.972,0.641,1.274    C9.521,56.656,18.126,62.993,29.708,63c0.225,0,0.452-0.007,0.681-0.011c7.367-0.164,15.695-2.655,22.163-6.719l0.039-0.023    c0.847-0.508,1.692-1.086,2.49-1.723c0.496-0.368,0.838-1.188,0.838-1.788C55.914,52.561,55.878,53,55.831,52z" fill="#FA9826"/><path d="M54.57,45.118L54.57,45.118L54.57,45.118L54.57,45.118L54.57,45.118c-1.882,0.413-3.188,1.314-3.854,1.799    c-0.416,0.31-0.814,0.723-0.831,1.353c-0.012,0.344,0.136,0.737,0.424,0.97c0.289,0.233,0.61,0.314,0.905,0.314    c0.069,0,0.129-0.003,0.187-0.016l0.055-0.004l0.042-0.007c0.584-0.122,1.327-0.207,2.323-0.347    c0.765-0.084,1.18-0.145,2.18-0.158v-4.153C56,44.927,55.085,45.005,54.57,45.118L54.57,45.118z" fill="#FA9826"/></g><path d="M49.419,38.3C47.917,36.382,46,34.531,46,30.837V19.729c-3,2.194-8.259,3.88-13.3,4.883   c0.746-0.045,2.3-0.073,2.3-0.073v1.645c0,3.147,0.294,5.61-1.346,8.349c-0.958,1.915-2.524,3.147-4.301,3.562   c-0.271,0-0.643,0.136-1.055,0.136c-3.007,0-4.766-2.326-4.766-5.748c0-4.122,2.11-6.164,5.113-7.195   c-2.129,0.249-4.118,0.368-6.364,0.368c-2.971,0-5.938,0.598-8.694,1.416c-1.032,1.93-1.568,4.133-1.568,6.776   c0,1.653,0.267,3.133,0.67,4.453c1.564,5.126,5.912,7.73,11.14,7.73c2.188,0,3.965-0.277,5.604-0.681   c2.605-0.825,4.789-2.331,7.389-5.071c1.505,2.053,1.92,3.016,4.517,5.205c0.687,0.27,1.37,0.27,1.913-0.134   c1.645-1.373,4.521-3.838,6.022-5.205C49.891,39.651,49.74,38.934,49.419,38.3C49.383,38.229,49.46,38.367,49.419,38.3z" fill="#2A2B35"/><path d="M55.831,52h-5.357c-6.486,3-14.694,7.482-20.983,7.619c-0.236,0.008,0.231,0,0,0   c-6.236,0.004-11.048-0.873-16.325-3.316L6.83,53.089c-1.159-0.428-2.321-1.013-3.439-1.788   c7.395,6.229,15.576,11.686,26.311,11.691c0.225,0,0.455-0.003,0.685-0.007c7.367-0.164,15.696-2.653,22.164-6.717l0.039-0.022   c0.847-0.508,1.692-1.086,2.49-1.723c0.496-0.367,0.839-1.268,0.839-1.867C55.914,52.48,55.831,52,55.831,52z" fill="#EA7B0C"/></g></svg>