<svg xmlns="http://www.w3.org/2000/svg"  viewBox="0 0 64 64" width="512px" height="512px"><linearGradient id="NUU6hG6cmF4W0NJVii0UMa" x1="32.001" x2="32.001" y1="5" y2="59" gradientUnits="userSpaceOnUse" spreadMethod="reflect"><stop offset="0" stop-color="#1a6dff"/><stop offset="1" stop-color="#c822ff"/></linearGradient><path fill="url(#NUU6hG6cmF4W0NJVii0UMa)" d="M52.398,28.797c0,0,4.444,0.225,4.444-2.387c0-3.412-5.917-6.488-5.917-6.488 s0.926-1.966,1.504-3.063c0.578-1.098,2.207-5.383,2.353-6.361c0.184-1.23-0.096-1.617-0.096-1.617 c-0.403,2.637-4.698,10.227-5.038,10.487c-4.192-1.963-9.951-2.51-9.951-2.51S34.062,5,28.761,5c-5.256,0-5.23,10.154-5.23,10.154 s-1.485-2.88-3.349-2.88c-2.725,0-3.619,4.119-3.619,8.584c-5.381,0-9.909,1.202-10.314,1.318C5.843,22.291,4.57,23.216,5.15,23.1 c1.177-0.377,6.707-1.231,11.548-0.811c0.266,4.245,2.746,9.772,2.746,9.772s-5.318,7.697-5.318,13.194 c0,1.447,0.542,4.296,4.361,4.296c3.198,0,6.878-2.125,7.555-2.515c-0.591,0.842-1.027,2.445-1.027,3.179 c0,0.347,0.134,1.052,0.701,1.594c0.9-0.899,1.791-1.789,2.884-2.881c-1.181-0.216-1.341-1.091-1.341-1.315 c0-0.794,0.622-1.732,0.622-1.732s2.873-1.94,3.054-2.147l2.123,3.957c0,0-2.173,1.287-3.881,1.287 c-0.215,0-0.405-0.018-0.576-0.049c-1.095,1.094-1.985,1.983-2.884,2.881c0.42,0.402,1.073,0.717,2.122,0.717 c3.168,0,6.706-2.426,6.706-2.426s3.341,5.547,6.196,8.089c0.77,0.686,1.506,0.81,1.506,0.81s-2.837-2.73-6.575-9.761 c3.473-2.145,7.091-7.204,7.091-7.204s0.426,0.014,3.725,0.014c5.169,0,12.512-1.087,12.512-5.191 C58.999,32.624,52.398,28.797,52.398,28.797z M52.975,26.247c0,1.497-1.427,1.48-1.427,1.48l-1.084,0.072l-3.306-1.588 c0,0,1.933-2.977,2.384-3.807C49.887,22.602,52.975,24.532,52.975,26.247z M21.72,15.617c0.772,0,1.528,0.938,1.839,1.733 c0,0.525,0.274,3.594,0.274,3.594l-4.461-0.167C19.373,16.756,20.95,15.617,21.72,15.617z M21.259,43.529 c-2.437,0-2.941-1.357-2.941-2.579c0-2.766,2.21-6.634,2.21-6.634s2.475,5.203,6.798,7.4C25.18,42.972,23.411,43.529,21.259,43.529z M34.505,46.819c-1.039-1.817-1.807-3.715-1.807-3.715s4.273,0.277,6.568-2.095c-1.431,0.644-3.711,1.454-6.367,1.21l11.524-12.08 c-0.237-0.284-1.488-1.157-1.795-1.304c-1.653,1.987-8.078,8.852-14.028,12.25c-7.533-4.105-9.116-16.184-9.275-18.693l4.115,0.394 c0,0-1.546,2.739-1.546,4.755s0.241,2.122,0.241,2.122s-0.051-3.514,2.12-6.228c1.653,8.8,3.379,13.309,4.723,15.995 c0.685-0.284,1.961-0.849,1.961-0.849s-3.802-10.946-3.589-18.355c1.199-0.64,2.803-1.285,4.633-1.624 c-0.045-0.474-0.145-0.948-0.35-1.422c-1.383,0.321-2.866,0.836-4.256,1.651c0.122-4.126,1.512-7.861,3.969-7.861 c2.429,0,5.898,5.73,5.898,5.73s-2.562-0.23-5.611,0.479c0.205,0.474,0.305,0.948,0.35,1.422c0.803-0.149,1.645-0.244,2.523-0.244 c7.58,0,13.674,3.26,13.674,3.26l-2.385,3.326c0,0-2.126-3.845-5.125-4.529c1.583,1.179,3.354,2.737,4.275,4.979 c-6.282-2.454-13.862-3.75-16.294-4.034c-0.212,0.896-0.184,2.176-0.184,2.176s10.167,1.875,17.565,6.105 C45.983,38.893,35.898,45.994,34.505,46.819z M44.135,39.906c0,0,3.158-4.138,3.106-9.62c0,0,5.099,3.155,5.099,6.233 C52.341,39.958,44.135,39.906,44.135,39.906z"/><linearGradient id="NUU6hG6cmF4W0NJVii0UMb" x1="30.194" x2="30.194" y1="8.879" y2="59" gradientUnits="userSpaceOnUse" spreadMethod="reflect"><stop offset="0" stop-color="#6dc7ff"/><stop offset="1" stop-color="#e6abff"/></linearGradient><path fill="url(#NUU6hG6cmF4W0NJVii0UMb)" d="M25.012,50.215c0-0.734,0.437-2.337,1.027-3.179c0.997-0.502,1.839-1.156,1.839-1.156 s-0.622,0.938-0.622,1.732c0,0.225,0.159,1.099,1.341,1.315c0.17,0.031,0.361,0.049,0.576,0.049c1.708,0,3.881-1.287,3.881-1.287 C26.075,53.939,25.012,50.304,25.012,50.215z M26.144,39.287l-0.084,0.041l-0.101,0.059c-0.396,0.232-0.768,0.425-1.13,0.594 c0.747,0.662,1.577,1.268,2.497,1.735c0.397-0.189,0.996-0.489,1.276-0.63C27.698,40.592,26.884,39.979,26.144,39.287z M19.058,42.859c-0.566-0.506-0.739-1.224-0.739-1.909c0-2.766,2.21-6.634,2.21-6.634l-1.085-2.255c0,0-5.471,8.219-0.403,10.835 C19.051,42.866,19.046,42.893,19.058,42.859z M52.251,37.111c-0.885,2.84-8.115,2.796-8.115,2.796l-1.374,2.13 c0,0,0.409,0.012,3.207,0.014C45.968,42.05,51.698,41.583,52.251,37.111z M45.854,32.603c-0.001,0,0.468,0.3,1.083,0.775 c0.195-0.964,0.315-1.999,0.304-3.093c-0.268-0.159-0.951-0.525-1.207-0.643c-0.005,0.981-0.145,1.933-0.354,2.862 C45.748,32.542,45.813,32.578,45.854,32.603L45.854,32.603z M52.975,26.247c0,1.497-1.427,1.48-1.427,1.48l-1.084,0.072l1.933,0.998 c6.238-0.255,1.442-5.104-2.854-6.392C49.887,22.602,52.975,24.532,52.975,26.247z M30.587,11.109 c0.242-0.084,0.493-0.135,0.76-0.135c2.429,0,5.898,5.73,5.898,5.73l2.453,0.153c0,0-0.564-1.183-1.497-2.799 C36.916,11.981,32.966,9.915,30.587,11.109z M21.472,13.354c-2.407-0.254-2.337,6.666-2.099,7.424c0-4.02,1.577-5.16,2.347-5.16 c0.772,0,1.528,0.938,1.839,1.733c-0.034-1.185-0.03-2.198-0.03-2.198S22.569,13.565,21.472,13.354z M30.079,18.946 c0.014-0.47,0.059-0.914,0.111-1.353c-0.941,0.306-1.896,0.703-2.812,1.241c-0.023,0.566,0.004,0.819-0.027,1.395 c0.757-0.404,1.689-0.802,2.723-1.131C30.076,19.048,30.078,19.003,30.079,18.946z M34.477,46.819 c-1.039-1.817-1.807-3.715-1.807-3.715s4.273,0.277,6.568-2.095c-1.431,0.644-3.711,1.454-6.367,1.21 c-0.562,0.583-1.238,1.033-1.968,1.516l2.123,3.957C33.027,47.691,34.643,46.72,34.477,46.819z M35.64,49.241 c0.326-0.201-1.127,0.86-1.127,0.86s3.341,5.547,6.196,8.089c0.77,0.686,1.506,0.81,1.506,0.81S39.378,56.272,35.64,49.241z M54.688,8.879c-0.403,2.637-4.698,10.227-5.038,10.487c-0.419-0.196,1.277,0.555,1.277,0.555s0.926-1.966,1.504-3.063 c0.578-1.098,2.207-5.383,2.353-6.361C54.966,9.266,54.688,8.879,54.688,8.879z M48.182,21.622l-2.385,3.326 c0,0-2.126-3.845-5.125-4.529c1.208,0.9,2.525,2.025,3.491,3.502c0-0.005,0-0.014,0-0.02c0,0.007,0,0.015,0,0.02 c0.299,0.458,0.568,0.946,0.785,1.476c1.242,0.473,2.315,0.856,2.212,0.814c0,0,1.933-2.977,2.384-3.807 C49.671,22.478,48.182,21.622,48.182,21.622z M23.834,20.945l-4.461-0.167c-0.07,0.451-0.043,1.154-0.046,1.616l4.115,0.394 c0,0-1.546,2.739-1.546,4.755s0.241,2.122,0.241,2.122s-0.045-3.121,1.77-5.752c-0.005-0.005-0.011-0.007-0.015-0.012 c0.005,0.005,0.011,0.008,0.015,0.012c0.111-0.161,0.226-0.319,0.35-0.475C23.976,21.847,23.834,20.945,23.834,20.945z M16.562,20.859c-5.381,0-9.909,1.202-10.314,1.318c-0.405,0.116-1.678,1.041-1.099,0.925c1.177-0.377,6.707-1.231,11.548-0.811 C16.598,21.398,16.562,20.859,16.562,20.859z"/></svg>
