<?xml version="1.0" ?><!DOCTYPE svg  PUBLIC '-//W3C//DTD SVG 1.1//EN'  'http://www.w3.org/Graphics/SVG/1.1/DTD/svg11.dtd'><svg enable-background="new 0 0 156.845 156.845" height="156.845" id="Layer_1" overflow="visible" version="1.1" viewBox="0 0 156.845 156.845" width="156.845" xml:space="preserve" xmlns="http://www.w3.org/2000/svg" xmlns:xlink="http://www.w3.org/1999/xlink"><g id="icon_2_"><circle cx="78.423" cy="78.422" fill="#4B7FDB" r="78.422"/><path d="M89.826,60.262c-4.274-5.671-10.373-8.383-18.38-8.383c-8.382,0-15.79,3.081-21.959,9.124   c-6.906,6.656-10.541,15.164-10.541,24.66c0,10.353,3.968,19.229,11.613,26.011c5.792,5.181,12.894,7.771,20.901,7.771   c7.895,0,12.665-2.103,19.793-7.771v8.098h17.823V27.375l-19.251,4.038V60.262L89.826,60.262z M75.617,101.815   c-9.991,0-17.134-7.031-17.134-16.277c0-8.877,7.15-16.4,16.396-16.4c9.127,0,16.146,7.154,16.146,16.65   C91.024,94.909,84.006,101.815,75.617,101.815z" fill="#FFFFFF"/></g></svg>