<?xml version="1.0" ?><!DOCTYPE svg  PUBLIC '-//W3C//DTD SVG 1.1//EN'  'http://www.w3.org/Graphics/SVG/1.1/DTD/svg11.dtd'><svg height="43.3492mm" style="shape-rendering:geometricPrecision; text-rendering:geometricPrecision; image-rendering:optimizeQuality; fill-rule:evenodd; clip-rule:evenodd" version="1.1" viewBox="0 0 224 224" width="43.3492mm" xml:space="preserve" xmlns="http://www.w3.org/2000/svg" xmlns:xlink="http://www.w3.org/1999/xlink"><defs><style type="text/css">
   <![CDATA[
    .fil2 {fill:#CFBC0E}
    .fil0 {fill:#FFE812}
    .fil1 {fill:white}
   ]]>
  </style></defs><g id="Layer_x0020_1"><g id="_445029784"><rect class="fil0" height="224" rx="24" ry="24" width="224"/><path class="fil1" d="M30 101c0,13 5,26 12,34 5,6 17,18 26,21 -2,14 -13,35 -4,31l20 -13c18,-13 10,-8 30,-8 40,0 80,-27 80,-65 0,-39 -40,-64 -83,-64 -40,0 -81,26 -81,64zm49 -14l-8 0 0 29c0,1 -1,3 -1,3 -1,1 -2,1 -3,1 -1,0 -2,0 -3,-1 -1,-1 -1,-2 -1,-3l0 -29 -9 0c-1,0 -2,0 -3,0 -1,-1 -1,-2 -1,-3 0,-1 0,-2 1,-2 1,-1 2,-1 3,-1l25 0c2,0 3,0 3,1 1,0 1,1 1,2 0,1 0,2 -1,3 0,0 -1,0 -3,0zm25 28l-2 -4 -16 0 -2 5c-1,1 -1,3 -2,3 0,1 -1,1 -2,1 -1,0 -2,0 -3,-1 -1,0 -1,-1 -1,-2 0,-1 0,-1 0,-2 0,0 1,-1 1,-2l10 -25c0,-1 1,-2 1,-3 0,-1 1,-2 1,-2 1,-1 1,-2 2,-2 1,-1 2,-1 3,-1 1,0 2,0 3,1 0,0 1,1 1,1 1,1 1,2 1,3 1,0 1,1 2,3l10 25c1,2 1,3 1,4 0,1 0,2 -1,2 -1,1 -2,1 -3,1 0,0 -1,0 -1,0 -1,0 -1,0 -2,-1 0,0 0,-1 -1,-1 0,-1 0,-2 0,-3zm-16 -10l12 0 -6 -16 -6 16zm34 -20l0 28 11 0c1,0 2,1 3,1 1,1 1,2 1,3 0,1 0,1 -1,2 -1,1 -2,1 -3,1l-14 0c-2,0 -3,-1 -4,-1 -1,-1 -1,-2 -1,-4l0 -30c0,-2 0,-3 1,-4 1,0 1,-1 3,-1 1,0 2,1 2,1 1,1 2,2 2,4zm24 0l0 14 16 -16c1,-1 1,-2 2,-2 0,-1 1,-1 2,-1 1,0 2,1 3,1 0,1 1,2 1,3 0,1 -1,2 -2,3l-10 9 11 16c1,1 2,2 2,3 1,1 1,1 1,2 0,1 -1,2 -1,3 -1,0 -2,0 -3,0 -1,0 -2,0 -3,0 0,-1 -1,-1 -1,-2 -1,-1 -1,-2 -2,-2l-9 -15 -7 7 0 8c0,1 0,3 -1,3 0,1 -1,1 -2,1 -1,0 -2,0 -2,0 -1,0 -2,-1 -2,-1 0,-1 0,-2 0,-2 0,-1 0,-2 0,-3l0 -29c0,-2 0,-3 1,-4 0,0 1,-1 3,-1 1,0 2,1 2,1 1,1 1,2 1,4z"/><path class="fil2" d="M224 109l-44 -45c9,10 14,23 14,37 0,38 -40,65 -80,65 -20,0 -12,-5 -30,8l-20 13c-1,1 -2,1 -3,0l37 37 102 0 24 -24 0 -91z"/><path class="fil2" d="M71 116l0 -29 8 0c2,0 3,0 3,0 1,-1 1,-2 1,-3 0,-1 0,-2 -1,-2 0,-1 -1,-1 -3,-1l-25 0c-1,0 -2,0 -3,1 -1,0 -1,1 -1,2 0,1 0,2 1,3 1,0 2,0 3,0l9 0 0 29c0,1 0,2 1,3 1,1 2,1 3,1 1,0 2,0 3,-1 0,0 1,-2 1,-3z"/><path class="fil2" d="M87 88l-10 25 -1 2c0,1 0,1 0,2 0,1 0,2 1,2 1,1 2,1 3,1 1,0 2,0 2,-1 1,0 1,-2 2,-3l2 -5 16 0 2 4 0 3c1,0 1,1 1,1 1,1 1,1 2,1 0,0 1,0 1,0 1,0 2,0 3,-1 1,0 1,-1 1,-2 0,-1 0,-2 -1,-4l-10 -25 -2 -3c0,-1 0,-2 -1,-3 0,0 -1,-1 -1,-1 -1,-1 -2,-1 -3,-1 -1,0 -2,0 -3,1 -1,0 -1,1 -2,2 0,0 -1,1 -1,2l-1 3zm13 17l-12 0 6 -16 6 16z"/><path class="fil2" d="M114 85l0 30c0,2 0,3 1,4 1,0 2,1 4,1l14 0c1,0 2,0 3,-1 1,-1 1,-1 1,-2 0,-1 0,-2 -1,-3 -1,0 -2,-1 -3,-1l-11 0 0 -28c0,-2 -1,-3 -2,-4 0,0 -1,-1 -2,-1 -2,0 -2,1 -3,1 -1,1 -1,2 -1,4z"/><path class="fil2" d="M139 85l0 29 0 3c0,0 0,1 0,2 0,0 1,1 2,1 0,0 1,0 2,0 1,0 2,0 2,-1 1,0 2,-2 2,-3l0 -8 6 -7 9 15 2 2c0,1 1,1 1,2 1,0 2,0 3,0 1,0 2,0 3,0 0,-1 1,-2 1,-3 0,0 0,-1 -1,-2 0,-1 -1,-2 -2,-3l-11 -16 10 -9c1,-1 2,-2 2,-3 0,-1 -1,-2 -1,-3 -1,0 -2,-1 -3,-1 -1,0 -2,0 -2,1 -1,0 -1,1 -2,2l-15 16 0 -14c0,-2 -1,-3 -2,-4 0,0 -1,-1 -2,-1 -2,0 -3,1 -3,1 -1,1 -1,2 -1,4z"/></g></g></svg>