<svg xmlns="http://www.w3.org/2000/svg" viewBox="0 0 64 64" fill-rule="evenodd"><path fill="#ff3e13" d="M60 12a8 8 0 0 0-8-8H12a8 8 0 0 0-8 8v40a8 8 0 0 0 8 8h40a8 8 0 0 0 8-8V12h0z"/><path fill="#fff" d="M24.99 37.25l-5.11-2.89c-1.43-.81-3.17-.79-4.59.03-1.41.83-2.28 2.34-2.28 3.98v9.07c0 1.64.87 3.15 2.28 3.98a4.59 4.59 0 0 0 4.59.03l5.11-2.89a7.5 7.5 0 0 0 1.71 2.65c1.41 1.41 3.32 2.2 5.3 2.2h11a7.47 7.47 0 0 0 5.3-2.2c1.41-1.41 2.2-3.32 2.2-5.3v-6a7.47 7.47 0 0 0-2.2-5.3c-1.41-1.41-3.32-2.2-5.3-2.2H32a7.47 7.47 0 0 0-5.3 2.2c-.76.76-1.34 1.66-1.71 2.65h0zm3.51 8.65v-6c0-.93.37-1.82 1.03-2.48A3.5 3.5 0 0 1 32 36.39h11c.93 0 1.82.37 2.47 1.03.66.66 1.03 1.55 1.03 2.48v6c0 .93-.37 1.82-1.03 2.47A3.5 3.5 0 0 1 43 49.4H32c-.93 0-1.82-.37-2.47-1.03a3.5 3.5 0 0 1-1.03-2.47h0zm-4-4.33l-6.6-3.73a.61.61 0 0 0-.6 0 .6.6 0 0 0-.3.52v9.07c0 .22.11.42.3.52.19.11.42.11.6 0l6.6-3.73v-2.67h0zm10.64-14.32a8.74 8.74 0 0 0 7.11 3.65c4.83 0 8.75-3.92 8.75-8.75s-3.92-8.75-8.75-8.75a8.75 8.75 0 0 0-6.03 2.41c-1.74-3.12-5.06-5.23-8.88-5.23-5.61 0-10.16 4.55-10.16 10.16S21.73 30.9 27.34 30.9c3.13 0 5.93-1.42 7.8-3.65h0zm-7.8-12.66c3.4 0 6.16 2.76 6.16 6.16s-2.76 6.16-6.16 6.16-6.16-2.76-6.16-6.16 2.76-6.16 6.16-6.16h0zm14.91 2.82c2.62 0 4.75 2.13 4.75 4.75s-2.13 4.75-4.75 4.75-4.75-2.13-4.75-4.75 2.13-4.75 4.75-4.75h0z"/></svg>