<?xml version="1.0" encoding="iso-8859-1"?>
<!-- Uploaded to: SVG Repo, www.svgrepo.com, Generator: SVG Repo Mixer Tools -->
<svg height="800px" width="800px" version="1.1" id="Layer_1" xmlns="http://www.w3.org/2000/svg" xmlns:xlink="http://www.w3.org/1999/xlink" 
	 viewBox="0 0 496 496" xml:space="preserve">
<path style="fill:#B70E10;" d="M421.008,225.868l-36.376-8.064c-24.992-5.76-32.376-16.112-32.376-33.368
	c0-19.552,15.328-31.072,40.32-31.072c27.272,0,42.056,10.36,44.32,35.096l56.832-6.904C489.184,129.78,453.944,108.5,396,108.5
	c-51.136,0-101.136,19.56-101.136,82.264c0,39.104,18.744,63.848,65.896,75.368l38.64,9.192
	c28.984,6.896,38.624,18.976,38.624,35.664c0,21.28-20.44,29.912-59.096,29.912c-57.384,0-81.224-30.496-94.856-72.488
	l-18.76-57.512c-23.864-74.784-61.92-102.408-137.48-102.408C44.32,108.5,0,162.012,0,252.9c0,87.424,44.32,134.608,123.864,134.608
	c64.184,0,94.864-30.496,94.864-30.496l-18.168-50.048c0,0-29.544,33.36-73.856,33.36c-39.2,0-67.04-34.496-67.04-89.72
	c0-70.768,35.2-96.072,69.872-96.072c50.008,0,65.904,32.784,79.544,74.792l18.168,57.504C245.44,342.644,279.528,387.5,377.8,387.5
	c70.472,0,118.184-21.856,118.184-79.376C496,261.524,469.848,237.364,421.008,225.868z"/>
<path style="fill:#CE1721;" d="M421.008,225.868l-36.376-8.064c-20.24-4.656-28.824-12.416-31.4-24.32
	c-0.6,2.432-0.976,4.984-0.976,7.76c0,17.24,7.384,27.608,32.376,33.368l36.376,8.048c45.472,10.704,71.24,32.416,74.592,72.952
	c0.192-2.456,0.4-4.88,0.4-7.488C496,261.524,469.848,237.364,421.008,225.868z"/>
<g>
	<path style="fill:#E51F32;" d="M425.4,117.164c51.344,0,55.432,24.904,65.552,64.736l2.776-0.336
		c-4.544-51.776-39.784-73.056-97.728-73.056c-51.136,0-101.136,19.56-101.136,82.264c0,3.096,0.168,6.064,0.408,8.968
		C299.336,143.292,376.48,117.164,425.4,117.164z"/>
	<path style="fill:#E51F32;" d="M127.832,125.292c87.976-3.136,113.616,27.624,137.48,102.408l18.76,57.512
		c13.632,41.992,37.48,72.496,94.856,72.496c38.656,0,59.096-8.648,59.096-29.928c0-3.16-0.344-6.152-1.104-8.968
		c-4.688,15.592-24.48,22.096-57.992,22.096c-57.384,0-81.224-30.496-94.856-72.488l-18.76-57.512
		c-23.864-74.784-61.92-102.408-137.48-102.408C44.32,108.5,0,162.012,0,252.9c0,2.824,0.168,5.496,0.264,8.224
		C3.024,175.516,16.36,129.276,127.832,125.292z"/>
</g>
<path style="fill:#CE1721;" d="M126.704,340.324c-37.176,0-64.088-31.056-66.776-81.352c-0.12,2.784-0.264,5.504-0.264,8.424
	c0,55.216,27.832,89.736,67.04,89.736c44.312,0,73.856-33.36,73.856-33.36l13.496,37.16c3.072-2.352,4.68-3.912,4.68-3.912
	l-18.176-50.056C200.56,306.964,171.016,340.324,126.704,340.324z"/>
<g>
	<path style="fill:#6D0915;" d="M129.536,154.532c12.176,0,22.312,1.976,30.912,5.528c-34.84-20.456-107.728,0.696-155.952,46.52
		C1.528,220.692,0,236.148,0,252.9c0,87.424,44.32,134.608,123.864,134.608c64.184,0,94.864-30.496,94.864-30.496l-18.168-50.048
		c0,0-29.544,33.36-73.856,33.36c-39.2,0-67.04-34.496-67.04-89.72C59.664,179.836,94.864,154.532,129.536,154.532z"/>
	<path style="fill:#6D0915;" d="M457.68,121.172c-73.16,0.888-97.232,30.384-102.792,50.616
		c5.36-11.744,18.712-18.416,37.688-18.416c27.272,0,42.056,10.36,44.32,35.096l56.832-6.904
		C491.152,152.14,478.632,132.58,457.68,121.172z"/>
</g>
</svg>