<?xml version="1.0" ?><!DOCTYPE svg  PUBLIC '-//W3C//DTD SVG 1.1//EN'  'http://www.w3.org/Graphics/SVG/1.1/DTD/svg11.dtd'><svg enable-background="new 0 0 512 512" height="512px" id="Layer_1" version="1.1" viewBox="0 0 512 512" width="512px" xml:space="preserve" xmlns="http://www.w3.org/2000/svg" xmlns:xlink="http://www.w3.org/1999/xlink"><g><path d="M510.689,478.854c0,17.561-14.275,31.836-31.836,31.836H33.146c-17.56,0-31.836-14.275-31.836-31.836   V33.146c0-17.56,14.276-31.836,31.836-31.836h445.707c17.561,0,31.836,14.276,31.836,31.836V478.854z" fill="#099A49"/></g><g><path d="M55.486,351.012h28.315c0,0,25.719,38.857,26.483,39.904c0.769,1.041,0.861,0,0.861,0   c-1.184-6.02-2.473-8.717-2.473-18.328v-21.576h28.205v71.977h-28.205c0,0-25.189-36.781-25.952-37.801   c-0.759-1.018-0.862,0-0.862,0c0.971,4.969,1.832,5.795,1.832,14.416v23.385H55.484L55.486,351.012L55.486,351.012z" fill="#FFFFFF"/><path d="M181.342,396.93l3.85-14.607c0.829-2.959,1.4-7.211,1.4-7.211c0.122-0.652,1.025-0.652,1.18,0.033   c0.185,1.002,0.635,4.062,1.496,7.113l3.924,14.672H181.342z M176.064,414.018h22.299l2.688,8.969h31.222l-28.962-71.975h-32.623   l-28.211,71.977h31.228L176.064,414.018z" fill="#FFFFFF"/><path d="M306.575,351.012l-31.436,71.977h-24.981l-31.438-71.977h30.792l10.769,32.742   c1.184,3.531,2.044,11.287,2.044,11.287c0.203,0.611,0.924,0.57,1.041,0c0,0,0.861-7.756,2.048-11.287l10.368-32.742H306.575z" fill="#FFFFFF"/><path d="M312.71,351.012h54.595v19.668H342.43v6.869h22.721v18.709H342.43v7.066h25.733v19.664H312.71V351.012   L312.71,351.012z" fill="#FFFFFF"/><path d="M409.026,370.68h2.267c5.059,0,9.47,0.661,9.47,6.202c0,5.342-4.845,6.015-9.692,6.015h-2.044V370.68z    M380.175,422.992h28.851v-23.106c0,0,0.188-0.82,0.738,0l12.725,23.104h34.027l-17.662-23.393c-1.62-2.096-4.344-3.895-4.953-4.29   c-0.607-0.405,0-0.581,0-0.581c10.979-3.244,15.72-7.821,15.72-18.708c0-18.136-15.509-25.01-33.81-25.01h-35.636V422.992   L380.175,422.992z" fill="#FFFFFF"/></g><g id="Layer_6"><g><path d="M387.856,307.406H124.144c-15.721,0-28.518-13.986-28.518-31.189V114.275    c0-17.191,12.797-31.189,28.518-31.189h263.713c15.721,0,28.518,13.992,28.518,31.189v161.941    C416.374,293.414,403.577,307.406,387.856,307.406z M124.144,110.76c-3.258,0-5.262,2.279-5.262,3.516v161.936    c0,1.236,2.004,3.51,5.262,3.51h263.713c3.258,0,5.262-2.273,5.262-3.51V114.275c0-1.233-2.004-3.504-5.262-3.504H124.144V110.76z    " fill="#FFFFFF"/></g><polygon fill="#FFFFFF" points="398.843,105.1 257.178,105.1 115.7,105.146 100.056,125.947 255.549,218.402 414.3,126.029  "/></g></svg>