<?xml version="1.0" ?><svg height="1024" preserveAspectRatio="xMidYMid meet" width="1024" xmlns="http://www.w3.org/2000/svg"><g><title/><rect fill="none" height="1026" id="canvas_background" width="1026" x="-1" y="-1"/></g><g><title/><g fill="#000000" id="svg_1" transform="translate(0,1024) scale(0.10000000149011612,-0.10000000149011612) "><path d="m4820,9439c-1036,-77 -1981,-503 -2723,-1228c-976,-952 -1444,-2300 -1271,-3654c216,-1693 1410,-3103 3050,-3602c1268,-386 2679,-157 3754,608c1321,941 2008,2502 1804,4100c-216,1693 -1410,3103 -3050,3602c-488,149 -1057,212 -1564,174zm1230,-3057c286,-73 465,-180 633,-378c186,-220 280,-410 309,-624l11,-89l26,13c42,21 179,41 271,40c94,-1 219,-33 318,-82c146,-71 309,-294 341,-467c15,-81 13,-227 -4,-307c-23,-110 -96,-240 -186,-330c-64,-64 -92,-84 -180,-126c-57,-27 -126,-56 -154,-63c-40,-10 -266,-13 -1082,-15l-1031,-1l-29,23l-28,22l0,1143c0,746 3,1146 10,1155c11,15 57,32 195,76c179,56 386,59 580,10zm-861,-170c22,-22 43,-1512 26,-1902c-15,-351 -18,-360 -114,-351c-48,4 -56,31 -70,220c-16,231 -5,1956 14,2010c7,22 24,41 44,52c31,17 35,17 60,1c14,-9 32,-23 40,-30zm-254,-116c23,-17 20,47 41,-791c8,-346 12,-668 9,-715c-3,-47 -10,-196 -14,-331c-7,-211 -11,-250 -27,-273c-22,-35 -51,-46 -86,-34c-32,11 -40,33 -43,108c-6,148 -26,460 -33,500c-8,48 23,1432 33,1487c10,55 76,82 120,49zm-702,-198c4,-12 11,-309 18,-660c14,-750 3,-1213 -30,-1258c-21,-30 -91,-42 -91,-16c0,9 -4,16 -9,16c-4,0 -9,24 -9,53c-1,28 -11,168 -23,309l-21,257l21,568c11,312 22,607 23,656c2,91 10,110 53,119c26,5 61,-17 68,-44zm228,9c0,-1 2,-56 5,-122c2,-66 13,-357 24,-647l20,-528l-20,-256c-12,-141 -22,-283 -23,-316c-1,-64 -11,-79 -56,-84c-69,-8 -77,37 -87,516c-8,387 11,1378 27,1414c15,32 47,46 82,34c15,-6 27,-11 28,-11zm-481,-22c0,-8 3,-15 8,-15c4,0 8,-39 9,-88c2,-48 14,-332 29,-631l26,-543l-26,-267c-14,-146 -27,-285 -29,-309c-6,-78 -59,-105 -99,-51c-15,20 -20,71 -35,314c-15,261 -15,340 -4,790c17,653 23,779 40,799c18,21 81,22 81,1zm734,-58c4,-12 12,-294 18,-626c13,-669 3,-1145 -25,-1213c-13,-32 -18,-35 -60,-36c-51,-2 -57,6 -63,93c-2,28 -13,163 -24,302l-21,252l20,533c12,293 22,573 23,621c3,95 11,112 58,119c31,5 66,-16 74,-45zm-960,-75c3,-21 13,-292 22,-603c16,-526 16,-584 0,-835c-9,-148 -16,-282 -16,-297c0,-28 -38,-77 -60,-77c-23,0 -42,40 -46,96c-3,33 -13,169 -24,304c-18,215 -19,276 -10,505c5,143 15,406 20,584c6,178 15,332 20,342c10,18 42,28 72,21c10,-3 19,-18 22,-40zm-244,-188c0,-8 3,-14 8,-14c4,0 8,-30 9,-68c1,-37 14,-249 28,-472l26,-405l-30,-313c-16,-173 -35,-319 -40,-326c-9,-11 -26,-12 -61,-7c-22,4 -30,69 -46,347c-15,272 -16,342 -5,589c7,154 16,361 21,460c4,99 11,188 15,198c14,34 75,43 75,11zm-454,-360c1,-22 17,-164 34,-316l32,-278l-31,-272c-17,-150 -33,-293 -34,-318c-3,-42 -5,-45 -34,-48c-31,-3 -31,-3 -37,55c-3,32 -15,177 -26,323l-20,265l24,310c21,262 27,311 42,322c26,19 48,1 50,-43zm-226,16c6,-11 21,-155 34,-320l24,-300l-24,-285c-13,-157 -28,-295 -34,-306c-15,-26 -54,-22 -57,6c-1,11 -16,146 -34,300l-33,280l32,290c18,159 32,302 32,317c0,39 42,52 60,18zm448,-18c22,-22 25,-54 43,-397c11,-199 10,-269 -5,-520c-16,-276 -18,-291 -40,-313c-26,-26 -53,-21 -61,12c-3,11 -18,154 -35,316l-29,295l30,300c24,241 33,302 47,313c21,16 29,15 50,-6zm-687,-69c2,-31 14,-102 44,-283c19,-115 35,-223 35,-242c0,-29 -67,-482 -76,-515c-5,-19 -42,-15 -48,5c-11,35 -36,430 -36,572c1,80 7,190 15,245c8,55 15,118 15,140c0,22 7,51 16,63c15,22 33,29 35,15zm-196,-215c2,-13 14,-90 25,-171l21,-148l-21,-137c-29,-192 -29,-192 -48,-192c-14,0 -23,30 -48,165l-30,165l29,163c16,89 34,165 40,169c19,12 26,9 32,-14z" fill="#ff3a00" id="svg_2"/></g></g></svg>