<?xml version="1.0" ?><!DOCTYPE svg  PUBLIC '-//W3C//DTD SVG 1.1//EN'  'http://www.w3.org/Graphics/SVG/1.1/DTD/svg11.dtd'><svg id="Capa_1" style="enable-background:new 0 0 112.197 112.197;" version="1.1" viewBox="0 0 112.197 112.197" xml:space="preserve" xmlns="http://www.w3.org/2000/svg" xmlns:xlink="http://www.w3.org/1999/xlink"><g><circle cx="56.099" cy="56.098" r="56.098" style="fill:#395976;"/><g><path d="M58.178,38.032V22.966h-9.725c-0.219,0.55-0.327,1.221-0.327,1.891    c-0.102,0.327-0.222,0.564-0.222,0.89c-0.997,5.587-3.899,9.484-8.814,11.613c-1.459,0.673-2.798,0.775-4.242,0.673v12.146h7.146    c0.116,17.092,0.116,25.903,0.116,26.351v1.013c0.897,7.457,4.796,11.926,11.717,13.606c2.785,0.772,5.794,1.116,8.814,1.116    c3.9-0.12,7.696-0.789,11.493-2.007V75.964c-2.218,0.67-4.241,1.234-6.026,1.786c-3.456,1.01-6.358,0.341-8.713-1.891    c-0.222-0.341-0.551-0.79-0.667-1.237c-0.329-1.784-0.538-3.678-0.538-5.461V50.178h15.497V38.032H58.178z" style="fill:#F1F2F2;"/></g></g><g/><g/><g/><g/><g/><g/><g/><g/><g/><g/><g/><g/><g/><g/><g/></svg>