<?xml version="1.0" encoding="UTF-8" standalone="no"?>
<svg width="141px" height="142px" viewBox="0 0 141 142" version="1.1" xmlns="http://www.w3.org/2000/svg" xmlns:xlink="http://www.w3.org/1999/xlink">
    <!-- Generator: sketchtool 42 (36781) - http://www.bohemiancoding.com/sketch -->
    <title>4AD147AC-6281-4629-8B2A-676F15DFEED1</title>
    <desc>Created with sketchtool.</desc>
    <defs></defs>
    <g id="Page-1" stroke="none" stroke-width="1" fill="none" fill-rule="evenodd">
        <g id="Nulab-logos-" transform="translate(-981.000000, -2619.000000)">
            <g id="Group-5" transform="translate(981.000000, 2619.000000)">
                <path d="M112.21506,141.27641 L29.2438394,141.27641 C13.5187359,141.27641 0.651466126,128.389559 0.651466126,112.638806 L0.651466126,29.5308457 C0.651466126,13.7800933 13.5187359,0.893241768 29.2438394,0.893241768 L112.21506,0.893241768 C127.940164,0.893241768 140.80603,13.7800933 140.80603,29.5308457 L140.80603,112.638806 C140.80603,128.389559 127.940164,141.27641 112.21506,141.27641" id="Fill-5" fill="#ff6455"></path>
                <path d="M89.2859984,44.1391309 L76.3288949,44.0983586 L76.3064365,36.6974873 L61.9920024,36.7382596 L62.0130572,44.0547744 L49.4096738,44.0154081 L49.364757,58.3531903 L62.0551667,58.3925566 L62.122542,81.9026952 C62.1492114,95.1944576 71.5185826,105.32426 83.936684,105.470477 L84.3802377,105.473289 L84.3802377,91.1341012 L84.08126,91.1326952 C78.8147611,91.0708338 76.4482053,86.4382596 76.4383797,81.8675467 L76.3696008,58.4375467 L89.2410815,58.478319 L89.2859984,44.1391309 Z" id="Fill-7" fill="#FFFFFF"></path>
            </g>
        </g>
    </g>
</svg>