<?xml version="1.0" encoding="UTF-8"?>
<!DOCTYPE svg PUBLIC "-//W3C//DTD SVG 1.1//EN" "http://www.w3.org/Graphics/SVG/1.1/DTD/svg11.dtd">
<!-- Creator: CorelDRAW -->
<svg xmlns="http://www.w3.org/2000/svg" xml:space="preserve" width="6.82666in" height="6.82666in" style="shape-rendering:geometricPrecision; text-rendering:geometricPrecision; image-rendering:optimizeQuality; fill-rule:evenodd; clip-rule:evenodd"
viewBox="0 0 6.82666 6.82666"
 xmlns:xlink="http://www.w3.org/1999/xlink">
 <defs>
  <style type="text/css">
   <![CDATA[
    .fil2 {fill:none}
    .fil0 {fill:#318EDE}
    .fil1 {fill:#3BAF2A}
   ]]>
  </style>
 </defs>
 <g id="Layer_x0020_1">
  <metadata id="CorelCorpID_0Corel-Layer"/>
  <g id="_380520816">
   <g>
    <path id="_380522088" class="fil0" d="M1.89736 2.94257c-0.0138937,0 -0.0177953,0.00529134 -0.0196378,0.0163661 -0.021622,0.117024 -0.0437323,0.233106 -0.0657362,0.349327 -0.00919291,0.0498583 -0.0187677,0.0997165 -0.0293543,0.154 -0.0028189,-0.0096811 -0.00476772,-0.0144843 -0.00612598,-0.0197756 -0.0447047,-0.159677 -0.0893071,-0.319945 -0.132902,-0.480244 -0.00393307,-0.0143819 -0.0097126,-0.0196732 -0.0254488,-0.0196732 -0.0706142,0.000488189 -0.141118,0 -0.211626,-0.000488189l-0.0148661 0c-0.00675591,0 -0.0135079,0.000488189 -0.0206102,0.000488189 -0.0015,0.00529134 -0.00334252,0.0100984 -0.00480709,0.0153543 -0.0321732,0.114724 -0.064378,0.228858 -0.0964094,0.343063 -0.0145197,0.0523307 -0.0293504,0.103685 -0.0452283,0.159811 -0.00233465,-0.0120433 -0.00379528,-0.0196339 -0.00525984,-0.0269134 -0.0302205,-0.159291 -0.0604409,-0.318618 -0.089689,-0.477909 -0.00194882,-0.0104449 -0.00675591,-0.0134055 -0.0168189,-0.0134055 -0.0325551,0.00101181 -0.0652126,0.000488189 -0.0973858,0.000488189 -0.0488819,0 -0.0982874,0.000523622 -0.14728,-0.000488189 -0.0107913,-0.000346457 -0.0144843,0.00264567 -0.0148661,0.00863386l0 0.00257874c0.000106299,0.00194882 0.000488189,0.00417717 0.000976378,0.00661417 0.00859843,0.0340197 0.017685,0.0680354 0.0239528,0.102677 0.0148701,0.0800827 0.0360039,0.158843 0.0508701,0.238921 0.010063,0.0556378 0.0263937,0.10978 0.038437,0.165071 0.0297362,0.132902 0.0589488,0.265799 0.087811,0.399189 0.00233465,0.0129173 0.0071378,0.0172008 0.0205079,0.0172008 0.081685,-0.000976378 0.163264,-0.000976378 0.244807,0 0.0123937,0 0.0171969,-0.00379528 0.0206457,-0.0153543 0.0272638,-0.0949488 0.0551496,-0.190004 0.0829016,-0.284465 0.0254173,-0.0868346 0.0508701,-0.173669 0.0772598,-0.263465 0.00247244,0.00724016 0.0043189,0.0110354 0.00577953,0.0158386 0.0537953,0.177122 0.106996,0.353614 0.160303,0.530244 0.00379528,0.0138898 0.0095748,0.0172008 0.0229449,0.0172008 0.0754134,-0.000976378 0.149752,-0.000488189 0.224681,-0.000488189 0.0315433,0 0.0315433,0 0.0407717,-0.0282362 0.000346457,-0.00334252 0.000346457,-0.00727953 0.000870079,-0.0105866 0.0197756,-0.0892717 0.0394134,-0.178476 0.0590512,-0.268236 0.0445984,-0.204906 0.0892008,-0.409772 0.134394,-0.614642 0.00282283,-0.0134055 0.00233465,-0.0186969 -0.0139961,-0.0186969 -0.0800787,0.00101181 -0.159673,0.00101181 -0.238917,0z"/>
    <path id="_380521416" class="fil0" d="M3.19666 3.27275c0.0168189,0.0695315 0.0196378,0.140528 0.0191496,0.212008 0,0.0130197 -0.00525591,0.014378 -0.0158386,0.014378 -0.0483976,-0.000484252 -0.0969016,-0.000484252 -0.145295,-0.000484252 -0.160303,0 -0.320118,0.000484252 -0.48028,0 -0.0158425,0 -0.0182795,0.00340945 -0.0153543,0.0187638 0.00626772,0.0330433 0.0134055,0.0657362 0.0325551,0.0939764 0.0566142,0.0830394 0.181921,0.0940748 0.251941,0.0192874 0.0235709,-0.0254173 0.0450551,-0.0326575 0.0782362,-0.0288622 0.0906299,0.0115591 0.181783,0.0187992 0.275374,0.0274016 -0.0239528,0.0455394 -0.0523307,0.0848504 -0.0858583,0.12085 -0.0585984,0.0628819 -0.131543,0.100346 -0.215457,0.116189 -0.108945,0.0206457 -0.21789,0.0220039 -0.327217,0.00431496 -0.153512,-0.0254488 -0.25424,-0.117055 -0.310366,-0.25772 -0.0518425,-0.129559 -0.0513583,-0.262839 -0.00198425,-0.392921 0.0528189,-0.137705 0.15452,-0.224051 0.298004,-0.259043 0.119878,-0.0293504 0.241709,-0.0259055 0.360264,0.00762598 0.153996,0.0440787 0.24428,0.151177 0.282126,0.304236zm-0.317154 0.0435945c-0.00428346,-0.0249291 -0.00908661,-0.049374 -0.017689,-0.0729449 -0.0412598,-0.116083 -0.19,-0.120366 -0.252882,-0.0474213 -0.029248,0.0335276 -0.0422677,0.0728386 -0.0485354,0.115594 -0.00330709,0.0221102 -0.00330709,0.0221102 0.0188031,0.0221102l0.14 0c0.0485354,0 0.0965512,-0.000488189 0.145433,0.000488189 0.0143819,0 0.0173425,-0.00480709 0.0148701,-0.0178268z"/>
   </g>
   <g>
    <path id="_380521704" class="fil1" d="M5.10151 3.8734c0.00476772,0.0139961 0.00379528,0.0177913 -0.0125354,0.0177913 -0.0974213,-0.000976378 -0.194807,-0.000488189 -0.292575,0 -0.0120472,0 -0.0178268,-0.0029252 -0.0211339,-0.0148661 -0.0115591,-0.0407717 -0.0249291,-0.0810591 -0.0360039,-0.121969 -0.00393307,-0.0138583 -0.010063,-0.017689 -0.0235709,-0.0171654 -0.0901417,0.000488189 -0.179937,0.000488189 -0.26963,0 -0.0125,-0.000523622 -0.0186614,0.0028189 -0.0225945,0.0163307 -0.0109331,0.0417441 -0.0244449,0.0833898 -0.0363504,0.125657 -0.00243701,0.00908661 -0.00675591,0.0125 -0.0158425,0.0120118 -0.0158425,-0.000976378 -0.0311969,0.000488189 -0.0470394,0.000488189l-0.261031 0c0.0110748,-0.0298386 0.021622,-0.0566142 0.0311969,-0.0840157 0.0297362,-0.0800827 0.0571378,-0.161138 0.0881969,-0.240835 0.0802205,-0.204906 0.155531,-0.411618 0.232791,-0.617984 0.00320079,-0.00925984 0.00776378,-0.0135787 0.017685,-0.0138583l0.000488189 0 0.000488189 0c0.100835,0.000488189 0.201563,0.000488189 0.301803,0l0.000555118 0 0.000559055 0c0.0111732,0.000350394 0.0153543,0.0056063 0.0190079,0.0153543 0.05,0.135232 0.101323,0.270571 0.151705,0.406291 0.000484252,0.00100787 0.00146063,0.00198425 0.00233071,0.00296063 0.00194882,0.00664961 0.00393307,0.0138898 0.00626772,0.0201575 0.0619055,0.164587 0.122839,0.329063 0.185232,0.49365zm-0.43902 -0.377602c-0.0115236,-0.0364528 -0.0225984,-0.0729409 -0.034122,-0.109429 -0.0148661,-0.0488858 -0.0297362,-0.0982598 -0.0450906,-0.149126 -0.00233071,0.00334252 -0.00330709,0.00529134 -0.00379528,0.00664961 -0.0264252,0.0845039 -0.0513543,0.16939 -0.0772598,0.25389 -0.00383071,0.0119094 0.00146457,0.0128858 0.0110394,0.0128858 0.046063,-0.000488189 0.092126,-0.000976378 0.138189,0 0.0128858,0 0.0143819,-0.00379528 0.0110394,-0.0148701z"/>
    <path id="_380522040" class="fil1" d="M3.94322 3.53511c-0.0695315,0.0140315 -0.139551,0.00961024 -0.209673,0.0105827 -0.0163307,0.000488189 -0.0373583,-0.00713386 -0.0479094,0.00393701 -0.010063,0.0104094 -0.00296063,0.0307087 -0.00296063,0.0468976 -0.000488189,0.0921299 -0.000488189,0.184256 0.000488189,0.276386 3.54331e-005,0.0144843 -0.00379528,0.0182795 -0.0181732,0.0182795 -0.0920945,-0.000976378 -0.184709,-0.000976378 -0.276839,0 -0.014378,0 -0.0188031,-0.00379528 -0.0188031,-0.0187677 0.000488189,-0.160197 0.000488189,-0.320949 0.000488189,-0.481252 0,-0.0071378 -0.000488189,-0.0143819 -0.000972441,-0.0215157 0,-0.0657047 0.000484252,-0.132031 0.000972441,-0.197732 0,-0.0733268 0,-0.146791 -0.000488189,-0.220744 0,-0.0115276 0.0027874,-0.0159134 0.0146614,-0.0161929l0.0011811 0c0.16274,0.000488189 0.325374,0 0.488496,0.000838583 0.057622,0 0.113748,0.0100945 0.166429,0.0364882 0.0657362,0.0331811 0.106126,0.0863465 0.126772,0.155984 0.00184646,0.00626772 0.00379528,0.0124291 0.00564173,0.0186969 0.0097126,0.0556378 0.0120472,0.111764 0,0.16789 -0.0254173,0.119008 -0.105988,0.195783 -0.229311,0.220224zm-0.0672008 -0.299815c-0.00184252,-0.0379528 -0.0249291,-0.067689 -0.0609291,-0.077752 -0.0254173,-0.00675197 -0.051811,-0.00762205 -0.0743031,-0.00675197 -0.018311,0 -0.0326575,0 -0.0470394,0 -0.00724016,-0.000385827 -0.0110709,0.00146063 -0.0110709,0.0097126 0.000523622,0.0531693 0,0.106472 0,0.159677 0,0.00626378 0.00101181,0.0110354 0.00860236,0.0110354 0.0432441,-0.000976378 0.0873583,0.0043189 0.129591,-0.0110354 0.0369764,-0.0129173 0.0571378,-0.0436299 0.0551496,-0.0848858z"/>
    <path id="_380521584" class="fil1" d="M5.64366 2.93498c0.108976,0.000838583 0.217783,0.000488189 0.329689,0.000488189 -0.0230866,0.0354803 -0.0456811,0.0690079 -0.0672008,0.102189 -0.0983583,0.147768 -0.196268,0.295047 -0.294661,0.442291 -0.00577953,0.00909055 -0.00762598,0.018315 -0.00762598,0.028378 0,0.121862 0,0.243205 0.000488189,0.365067 3.54331e-005,0.0139961 -0.00390157,0.0177913 -0.0177913,0.0177913 -0.0926181,-0.000976378 -0.184744,-0.000976378 -0.276874,0 -0.0158425,0.000488189 -0.0181732,-0.00477165 -0.0181732,-0.0191496 0.000488189,-0.119496 0,-0.239512 0.000488189,-0.358902 0,-0.0144843 -0.00393701,-0.0254173 -0.0115276,-0.0369764 -0.115594,-0.173185 -0.231295,-0.34637 -0.346402,-0.519693 -0.00389764,-0.00564173 -0.00772835,-0.0119094 -0.0139961,-0.0209961l0.183386 0c0.0503819,0 0.100728,0.000350394 0.151075,0 0.0110709,-0.000488189 0.0168504,0.00379528 0.0221102,0.0128819 0.0527126,0.0893071 0.105531,0.177988 0.15835,0.267299 0.00379528,0.00626772 0.00759055,0.0119055 0.0110354,0.0181732 0.00762598,-0.00334252 0.0095748,-0.0105827 0.0129173,-0.0153543 0.0533071,-0.089689 0.106476,-0.178965 0.159295,-0.268654 0.00654331,-0.010689 0.0129843,-0.0145906 0.0243031,-0.0148346l0.000555118 0 0.000559055 0z"/>
   </g>
  </g>
 </g>
 <rect class="fil2" width="6.82666" height="6.82666"/>
</svg>
