<?xml version="1.0" ?><!DOCTYPE svg  PUBLIC '-//W3C//DTD SVG 1.1//EN'  'http://www.w3.org/Graphics/SVG/1.1/DTD/svg11.dtd'><svg height="8.26772in" style="shape-rendering:geometricPrecision; text-rendering:geometricPrecision; image-rendering:optimizeQuality; fill-rule:evenodd; clip-rule:evenodd" version="1.1" viewBox="0 0 826772 826772" width="8.26772in" xml:space="preserve" xmlns="http://www.w3.org/2000/svg" xmlns:xlink="http://www.w3.org/1999/xlink"><defs><style type="text/css">
   <![CDATA[
    .fil0 {fill:#DD4B39}
    .fil1 {fill:#2E373C;fill-rule:nonzero}
    .fil2 {fill:white;fill-rule:nonzero}
   ]]>
  </style></defs><g id="Layer_x0020_1"><polygon class="fil0" points="0,0 826772,0 826772,826772 0,826772 "/><g id="_2016222283152"><path class="fil1" d="M351076 454612c1897,13080 3568,90257 -1899,96122 -10972,11655 -61064,8561 -73173,9415l-4156 23918c22055,663 93863,-1786 116183,-1786 44000,0 121083,-208 131980,609l1329 -25075c-11123,-1880 -71807,-228 -80197,-2145 -1860,-12149 -3891,-93409 -2051,-101818 8372,-24258 135871,-123094 149859,-126890 3151,-608 7821,-1671 13117,-2828l41075 0 6415 -9472c114,-75 380,-95 477,-95l15905 -23043c-228,0 -588,-57 -777,-57l1668 -2488 -222557 0 8561 35155 60761 0 -102215 92611c-20881,-28910 -69777,-89157 -103887,-139001l76515 0 0 -26766 892 -5901c-229,-57 -666,-114 -892,-114l0 -2411 -253745 0 0 35172 75261 0c29214,22909 140918,162937 145551,176888z"/><path class="fil1" d="M624960 360275l929 158743 34110 2731 39708 -153996c-6641,-228 -66908,-5961 -74747,-7478z"/><polygon class="fil1" points="656108,584218 661556,547394 641908,546426 620004,543712 620196,581313 637469,582813 "/><polygon class="fil1" points="656108,584218 661556,547394 641908,546426 620004,543712 620196,581313 637469,582813 "/><path class="fil1" d="M624960 360275l929 158743 34110 2731 39708 -153996c-6641,-228 -66908,-5961 -74747,-7478z"/></g><g id="_2016222289616"><path class="fil2" d="M321838 454612c1897,13080 3568,90257 -1899,96122 -10972,11655 -61065,8561 -73173,9415l-4157 23918c22056,663 93863,-1786 116184,-1786 43999,0 121083,-208 131980,609l1328 -25075c-11123,-1880 -71807,-228 -80197,-2145 -1860,-12149 -3890,-93409 -2050,-101818 8372,-24258 135870,-123094 149859,-126890 3150,-608 7820,-1671 13117,-2828l41074 0 6416 -9472c114,-75 380,-95 476,-95l15906 -23043c-229,0 -589,-57 -778,-57l1669 -2488 -222558 0 8561 35155 60761 0 -102215 92611c-20881,-28910 -69776,-89157 -103886,-139001l76515 0 0 -26766 891 -5901c-228,-57 -665,-114 -891,-114l0 -2411 -253745 0 0 35172 75261 0c29213,22909 140918,162937 145551,176888z"/><path class="fil2" d="M595722 360275l928 158743 34110 2731 39709 -153996c-6642,-228 -66909,-5961 -74747,-7478z"/><polygon class="fil2" points="626869,584218 632317,547394 612670,546426 590766,543712 590957,581313 608230,582813 "/><polygon class="fil2" points="626869,584218 632317,547394 612670,546426 590766,543712 590957,581313 608230,582813 "/><path class="fil2" d="M595722 360275l928 158743 34110 2731 39709 -153996c-6642,-228 -66909,-5961 -74747,-7478z"/></g></g></svg>