<svg xmlns="http://www.w3.org/2000/svg" viewBox="0 85.333 512 341.333"><path fill="#003399" d="M0 85.331h512v341.337H0z"/><g fill="#FFCC00"><path d="M256 156.336l5.111 15.736h16.543l-13.382 9.723 5.111 15.736L256 187.808l-13.383 9.723 5.111-15.736-13.382-9.723h16.543z"/><path d="M329.642 180.11l-12.836 10.43 4.897 16.016-13.106-9.438-13.107 9.438 4.898-16.016-12.836-10.43 16.193-.252 5.35-15.592 5.35 15.592z"/><path d="M373.159 233.539l-16.135 1.169 2.012 16.51-10.684-12.582-10.684 12.582 2.012-16.51-16.135-1.169 14.286-7.739-3.775-16.139 12.296 10.922 12.296-10.922-3.775 16.139z"/><path d="M384 302.664l-16.543.001 0 16.543-7.111-14.757-14.758 7.111 7.111-14.758-14.758-7.111 16.543 0 0-16.543 7.111 14.758 14.758-7.111-7.111 14.758z"/><path d="M373.159 372.128l-14.286-7.739 3.775 16.139-12.296-10.922-12.296 10.922 3.775-16.139-14.286 7.739 16.135 1.169-2.012-16.51 10.684 12.582 10.684-12.582-2.012 16.51z"/><path d="M329.642 425.558l-5.35-15.592-5.35 15.592-16.193.252 12.836 10.43-4.898 16.016 13.107-9.438 13.106 9.438-4.897-16.016 12.836-10.43z"/><path d="M256 449.331l-5.111-15.736h-16.543l13.382-9.723-5.111-15.736L256 417.859l13.383-9.723-5.111 15.736 13.382 9.723h-16.543z"/><path d="M182.358 425.558l12.836-10.43-4.898-16.016 13.107 9.438 13.106-9.438-4.897 16.016 12.836 10.43-16.193.252-5.35 15.592-5.35-15.592z"/><path d="M138.841 372.128l16.135-1.169-2.012-16.51 10.684 12.582 10.684-12.582-2.012 16.51 16.135 1.169-14.286 7.739 3.775 16.139-12.296-10.922-12.296 10.922 3.775-16.139z"/><path d="M128 302.664l16.543-.001 0-16.543 7.111 14.758 14.758-7.111-7.111 14.758 14.758 7.111-16.543 0 0 16.543-7.111-14.758-14.758 7.111 7.111-14.758z"/><path d="M138.841 233.539l14.286 7.739-3.775-16.139 12.296 10.922 12.296-10.922-3.775 16.139 14.286-7.739-16.135-1.169 2.012-16.51-10.684 12.582-10.684-12.582 2.012 16.51z"/><path d="M182.358 180.11l5.35 15.592 5.35-15.592 16.193-.252-12.836-10.43 4.897-16.016-13.106 9.438-13.107-9.438 4.898 16.016-12.836 10.43z"/></g></svg>
