<?xml version="1.0" encoding="UTF-8"?>
<svg id="_图层_1" data-name="图层 1" xmlns="http://www.w3.org/2000/svg" version="1.1" viewBox="0 0 512 512">
  <defs>
    <style>
      .cls-1 {
        fill: #efc8ac;
      }

      .cls-1, .cls-2, .cls-3, .cls-4 {
        stroke-width: 0px;
      }

      .cls-2 {
        fill: #965c3c;
      }

      .cls-3 {
        fill: #8e5c3a;
      }

      .cls-4 {
        fill: #7a4e30;
      }
    </style>
  </defs>
  <path class="cls-4" d="M33,125.9c0-14.81,10.85-26.82,24.24-26.82h366.59c13.39,0,24.24,12.01,24.24,26.82v259.22c0,14.81-10.85,26.82-24.24,26.82H57.24c-13.39,0-24.24-12.01-24.24-26.82"/>
  <path class="cls-2" d="M420.2,399.63H60.88c-8.27,0-14.99-7.44-14.99-16.59V127.98c0-9.15,6.73-16.59,14.99-16.59h359.32c8.27,0,14.99,7.44,14.99,16.59v255.06c0,9.15-6.73,16.59-14.99,16.59ZM60.88,119.25c-4.35,0-7.89,3.91-7.89,8.73v255.06c0,4.81,3.54,8.73,7.89,8.73h359.32c4.35,0,7.89-3.91,7.89-8.73V127.98c0-4.81-3.54-8.73-7.89-8.73H60.88Z"/>
  <path class="cls-3" d="M364.34,220.74h108.86c3.2,0,5.8,2.6,5.8,5.8v57.92c0,3.2-2.6,5.8-5.8,5.8h-108.86c-7.32,0-13.27-5.94-13.27-13.27v-42.99c0-7.32,5.94-13.27,13.27-13.27Z"/>
  <path class="cls-1" d="M392.31,255.51c0,8.46-6.2,15.31-13.84,15.31s-13.84-6.86-13.84-15.31,6.2-15.31,13.84-15.31,13.84,6.86,13.84,15.31Z"/>
</svg>